<?xml version="1.0" standalone="no"?>
<!DOCTYPE svg PUBLIC "-//W3C//DTD SVG 20010904//EN"
 "http://www.w3.org/TR/2001/REC-SVG-20010904/DTD/svg10.dtd">
<svg version="1.0" xmlns="http://www.w3.org/2000/svg"
 width="260.000000pt" height="260.000000pt" viewBox="0 0 260.000000 260.000000"
 preserveAspectRatio="xMidYMid meet">
<metadata>
Created by potrace 1.11, written by Peter Selinger 2001-2013
</metadata>
<g transform="translate(0.000000,260.000000) scale(0.100000,-0.100000)"
fill="#000000" stroke="none">
<path d="M0 1300 l0 -1300 1300 0 1300 0 0 1300 0 1300 -1300 0 -1300 0 0
-1300z m2358 721 c26 -16 -31 -196 -93 -290 l-26 -39 26 -37 c30 -45 50 -107
42 -129 -7 -17 -17 -15 -100 24 -89 42 -178 150 -211 258 -10 31 20 29 96 -4
l59 -27 49 53 c27 29 67 86 87 127 38 73 46 80 71 64z m-2053 -83 c17 -36 56
-91 91 -128 60 -62 62 -64 85 -49 20 13 113 49 127 49 10 0 -8 -60 -34 -114
-42 -88 -150 -179 -251 -210 -20 -6 -23 -4 -23 17 0 33 27 107 47 129 15 17
12 25 -35 120 -61 121 -91 226 -70 239 25 16 34 9 63 -53z m1693 -200 c29 -61
53 -96 93 -133 l54 -50 0 -75 c-1 -90 -20 -138 -101 -251 -61 -84 -173 -186
-287 -261 -130 -86 -123 -79 -102 -95 34 -24 63 -13 164 65 56 42 111 82 123
88 41 23 121 111 173 189 87 132 128 258 93 293 -15 15 9 16 48 2 25 -10 26
-13 20 -63 -8 -62 -49 -148 -112 -237 -49 -69 -202 -230 -219 -230 -5 0 -32
-21 -60 -46 -27 -25 -67 -57 -88 -71 -20 -14 -35 -28 -33 -31 3 -2 31 -11 63
-18 85 -20 201 -17 303 7 77 18 92 19 116 8 36 -18 56 -56 43 -81 -11 -21
-205 -117 -284 -141 -161 -49 -416 -57 -590 -17 -120 27 -107 27 -225 1 -124
-28 -291 -37 -402 -22 -111 15 -224 44 -274 70 -21 11 -51 25 -66 31 -114 48
-137 75 -104 124 19 30 65 37 137 20 121 -28 243 -27 342 2 26 8 21 16 -28 47
-25 16 -48 34 -53 41 -4 7 -41 38 -82 68 -89 66 -162 141 -215 223 -21 33 -47
69 -57 80 -23 27 -58 129 -58 170 0 26 5 33 33 43 18 7 35 12 38 12 2 0 2 -22
1 -49 -7 -89 37 -188 143 -325 27 -36 213 -185 309 -248 46 -31 61 -33 95 -14
22 12 21 14 -60 68 -93 61 -289 215 -289 226 0 4 -20 34 -45 67 -60 80 -95
170 -95 243 0 56 1 58 64 124 48 51 69 82 89 135 l25 68 53 0 c118 -1 228 -95
352 -303 46 -76 111 -167 162 -225 47 -54 85 -102 85 -107 0 -22 18 -6 75 65
33 41 63 75 66 75 8 0 63 79 92 131 103 188 158 264 234 322 60 45 112 66 165
67 37 0 37 -1 76 -82z"/>
<path d="M1250 729 l-25 -11 35 -15 c28 -12 42 -13 73 -3 26 8 36 15 29 22
-15 15 -84 19 -112 7z"/>
<path d="M654 666 c39 -20 99 -41 135 -47 103 -18 356 5 389 36 11 10 5 14
-30 24 -35 9 -63 9 -143 -4 -150 -23 -291 -16 -400 20 -11 3 11 -10 49 -29z"/>
<path d="M1955 683 c-64 -19 -283 -21 -383 -4 -59 11 -83 11 -118 1 -40 -12
-43 -14 -26 -25 24 -17 113 -33 226 -41 98 -7 227 8 261 30 11 7 37 18 57 25
21 7 40 17 43 22 7 11 3 10 -60 -8z"/>
</g>
</svg>
